<svg xmlns="http://www.w3.org/2000/svg" viewBox="0 0 24 24" fill="currentColor" stroke="none">
  <path d="M9.662,16.835c1.855,-1.855 8.851,-8.851 9.461,-9.461c0.115,-0.135 0.286,-0.221 0.477,-0.221c0.346,0 0.627,0.281 0.627,0.627c0,0.191 -0.086,0.362 -0.221,0.477c-0.676,0.676 -9.191,9.191 -9.867,9.867c-0.115,0.135 -0.286,0.221 -0.477,0.221c-0.191,0 -0.362,-0.086 -0.477,-0.221c-0.472,-0.472 -4.719,-4.719 -5.191,-5.191c-0.135,-0.115 -0.221,-0.286 -0.221,-0.477c0,-0.346 0.281,-0.627 0.627,-0.627c0.191,0 0.362,0.086 0.477,0.221c0.405,0.405 3.591,3.591 4.784,4.784zM3.125,3.125c0,1.133 0,3.424 0,3.825c0.001,0.017 0.002,0.033 0.002,0.05c0,0.346 -0.281,0.627 -0.627,0.627c-0.346,0 -0.627,-0.281 -0.627,-0.627c0,-0.017 0.001,-0.034 0.002,-0.05c0,-0.497 0,-3.902 0,-4.399c-0.001,-0.017 -0.002,-0.033 -0.002,-0.05c0,-0.346 0.281,-0.627 0.627,-0.627c0.017,0 0.034,0.001 0.05,0.002c0.497,0 3.902,0 4.399,0c0.017,-0.001 0.033,-0.002 0.05,-0.002c0.346,0 0.627,0.281 0.627,0.627c0,0.346 -0.281,0.627 -0.627,0.627c-0.017,0 -0.034,-0.001 -0.05,-0.002c-0.401,0 -2.691,0 -3.825,0zM20.875,20.875c0,-1.133 0,-3.424 0,-3.825c-0.001,-0.017 -0.002,-0.033 -0.002,-0.05c0,-0.346 0.281,-0.627 0.627,-0.627c0.346,0 0.627,0.281 0.627,0.627c0,0.017 -0.001,0.034 -0.002,0.05c0,0.497 0,3.902 0,4.399c0.001,0.017 0.002,0.033 0.002,0.05c0,0.346 -0.281,0.627 -0.627,0.627c-0.017,0 -0.034,-0.001 -0.05,-0.002c-0.497,0 -3.902,0 -4.399,0c-0.017,0.001 -0.033,0.002 -0.05,0.002c-0.346,0 -0.627,-0.281 -0.627,-0.627c0,-0.346 0.281,-0.627 0.627,-0.627c0.017,0 0.034,0.001 0.05,0.002c0.401,0 2.691,0 3.825,0z"/>
</svg>
