<svg xmlns="http://www.w3.org/2000/svg" viewBox="0 0 24 24" fill="currentColor" stroke="none">
  <path d="M18.256,12.555c-0.119,0.035 -0.291,0.085 -0.381,0.111c-0.07,0.027 -0.145,0.041 -0.225,0.041c-0.037,0 -0.073,-0.003 -0.108,-0.009c-0.11,-0.01 -0.34,-0.031 -0.449,-0.041c-0.05,-0.001 -0.099,-0.007 -0.145,-0.019c-0.108,-0.018 -0.332,-0.054 -0.443,-0.072c-0.112,0.002 -0.335,0.006 -0.443,0.008c-0.018,0.002 -0.037,0.003 -0.055,0.003c-0.109,0.01 -0.339,0.031 -0.449,0.041c-0.035,0.006 -0.071,0.009 -0.108,0.009c-0.005,0 -0.011,0 -0.016,0c-0.109,0.006 -0.339,0.019 -0.449,0.024c-0.028,0.004 -0.056,0.006 -0.085,0.006c-0.113,0 -0.219,-0.03 -0.311,-0.082c-0.121,0.101 -0.274,0.229 -0.35,0.293c-0.113,0.111 -0.268,0.18 -0.439,0.18c-0.187,0 -0.355,-0.082 -0.47,-0.212c-0.046,-0.044 -0.123,-0.118 -0.203,-0.196c-0.044,0.021 -0.084,0.04 -0.113,0.054c-0.092,0.053 -0.199,0.084 -0.314,0.084c-0.075,0 -0.148,-0.013 -0.215,-0.038c-0.09,-0.024 -0.261,-0.071 -0.38,-0.104c-0.118,0.015 -0.286,0.036 -0.375,0.048c-0.042,0.009 -0.086,0.014 -0.13,0.014c-0.086,0 -0.169,-0.018 -0.244,-0.049c-0.078,-0.026 -0.219,-0.072 -0.333,-0.109c-0.113,0.027 -0.251,0.059 -0.328,0.078c-0.061,0.02 -0.127,0.031 -0.194,0.031c-0.052,0 -0.103,-0.006 -0.152,-0.019c-0.108,-0.018 -0.332,-0.054 -0.443,-0.072c-0.112,0.002 -0.335,0.006 -0.443,0.008c-0.02,0.002 -0.041,0.003 -0.062,0.003c-0.033,0 -0.065,-0.003 -0.096,-0.007c-0.106,-0.008 -0.323,-0.024 -0.437,-0.032c-0.113,0.014 -0.331,0.042 -0.437,0.056c-0.026,0.005 -0.052,0.009 -0.079,0.011c-0.109,0.018 -0.339,0.055 -0.449,0.073c-0.049,0.012 -0.1,0.019 -0.152,0.019c-0.083,0 -0.162,-0.016 -0.234,-0.045c-0.086,-0.027 -0.247,-0.076 -0.365,-0.113c-0.117,0.017 -0.274,0.04 -0.359,0.052c-0.036,0.008 -0.074,0.014 -0.112,0.015c-0.109,0.014 -0.339,0.043 -0.449,0.057c-0.042,0.009 -0.086,0.014 -0.13,0.014c-0.154,0 -0.295,-0.055 -0.404,-0.147c-0.047,0.011 -0.096,0.017 -0.146,0.017c-0.002,0 -0.003,0 -0.005,0c-0.109,0.008 -0.339,0.025 -0.449,0.033c-0.001,0 -0.002,0 -0.002,0c-0.109,0.026 -0.34,0.08 -0.45,0.106c-0.061,0.02 -0.127,0.031 -0.194,0.031c-0.029,0 -0.057,-0.002 -0.085,-0.006c-0.11,-0.006 -0.34,-0.019 -0.449,-0.024c-0.005,0 -0.011,0 -0.016,0c-0.079,0 -0.155,-0.015 -0.225,-0.041c-0.11,-0.032 -0.341,-0.099 -0.45,-0.131c-0.141,-0.028 -0.264,-0.104 -0.354,-0.21c0.004,0.028 0.006,0.056 0.006,0.085c0,0.346 -0.281,0.627 -0.627,0.627c-0.078,0 -0.153,-0.014 -0.222,-0.041c-0.009,0 -0.018,0.001 -0.028,0.001c-0.346,0 -0.627,-0.281 -0.627,-0.627c0,-0.007 0,-0.013 0,-0.02c0,-0.007 0,-0.013 0,-0.02c0,-0.017 0.001,-0.034 0.002,-0.05c0,-0.028 0,-0.059 0,-0.089c-0.001,-0.017 -0.002,-0.033 -0.002,-0.05c0,-0.002 0,-0.003 0,-0.005c0,-0.002 0,-0.003 0,-0.005c0,-0.002 0,-0.003 0,-0.005c0,-0.002 0,-0.003 0,-0.005c0,-0.002 0,-0.003 0,-0.005c0,-0.002 0,-0.003 0,-0.005c0,-0.003 0,-0.007 0,-0.01c0,-0.003 0,-0.007 0,-0.01c0,-0.002 0,-0.003 0,-0.005c0,-0.002 0,-0.003 0,-0.005c0,-0.003 0,-0.007 0,-0.01c0,-0.003 0,-0.007 0,-0.01c0,-0.002 0,-0.003 0,-0.005c0,-0.002 0,-0.003 0,-0.005c0,-0.008 0,-0.017 0,-0.025c0,-0.008 0,-0.017 0,-0.025c0,-0.002 0,-0.003 0,-0.005c0,-0.002 0,-0.003 0,-0.005c0,-0.002 0,-0.003 0,-0.005c0,-0.002 0,-0.003 0,-0.005c0,-0.002 0,-0.003 0,-0.005c0,-0.002 0,-0.003 0,-0.005c0,-0.002 0,-0.003 0,-0.005c0,-0.002 0,-0.003 0,-0.005c0,-0.002 0,-0.003 0,-0.005c0,-0.002 0,-0.003 0,-0.005c0,-0.002 0,-0.003 0,-0.005c0,-0.002 0,-0.003 0,-0.005c0,-0.003 0,-0.007 0,-0.01c0,-0.003 0,-0.007 0,-0.01c0,-0.017 0.001,-0.034 0.002,-0.05c0,-0.056 0,-0.11 0,-0.149c-0.001,-0.017 -0.002,-0.033 -0.002,-0.05c0,-0.346 0.281,-0.627 0.627,-0.627c0.346,0 0.627,0.281 0.627,0.627c0,0.017 -0.001,0.034 -0.002,0.05c0,0.039 0,0.093 0,0.149c0.001,0.009 0.001,0.018 0.002,0.027c0.018,0.019 0.034,0.037 0.048,0.052c0.019,0.018 0.037,0.037 0.054,0.056c-0.004,-0.028 -0.006,-0.056 -0.006,-0.085c0,-0.346 0.281,-0.627 0.627,-0.627c0.079,0 0.155,0.015 0.225,0.041c0.103,0.03 0.316,0.092 0.431,0.125c0.102,0.006 0.278,0.015 0.388,0.021c0.118,-0.028 0.313,-0.074 0.412,-0.097c0.061,-0.02 0.127,-0.031 0.194,-0.031c0.002,0 0.003,0 0.005,0c0.109,-0.008 0.339,-0.025 0.449,-0.033c0.031,-0.005 0.064,-0.007 0.096,-0.007c0.154,0 0.295,0.055 0.404,0.147c0.038,-0.009 0.077,-0.015 0.117,-0.017c0.109,-0.014 0.339,-0.043 0.449,-0.057c0.029,-0.006 0.059,-0.01 0.09,-0.012c0.109,-0.016 0.339,-0.049 0.449,-0.065c0.045,-0.01 0.093,-0.016 0.141,-0.016c0.083,0 0.162,0.016 0.234,0.045c0.084,0.026 0.242,0.075 0.36,0.111c0.117,-0.019 0.27,-0.044 0.354,-0.058c0.04,-0.01 0.081,-0.016 0.123,-0.018c0.109,-0.014 0.339,-0.043 0.449,-0.057c0.042,-0.009 0.086,-0.014 0.13,-0.014c0.033,0 0.065,0.003 0.096,0.007c0.11,0.008 0.34,0.025 0.449,0.033c0.002,0 0.003,0 0.005,0c0.013,0 0.026,0 0.039,0.001c0.109,-0.002 0.339,-0.006 0.449,-0.008c0.02,-0.002 0.041,-0.003 0.062,-0.003c0.052,0 0.103,0.006 0.152,0.019c0.089,0.015 0.257,0.042 0.376,0.061c0.119,-0.028 0.288,-0.068 0.378,-0.089c0.061,-0.02 0.127,-0.031 0.194,-0.031c0.086,0 0.169,0.018 0.244,0.049c0.086,0.028 0.248,0.081 0.367,0.12c0.117,-0.015 0.274,-0.035 0.359,-0.046c0.042,-0.009 0.086,-0.014 0.13,-0.014c0.075,0 0.148,0.013 0.215,0.038c0.066,0.018 0.176,0.048 0.277,0.076c0.107,-0.05 0.227,-0.107 0.295,-0.139c0.092,-0.053 0.199,-0.084 0.314,-0.084c0.187,0 0.355,0.082 0.47,0.212c0.027,0.026 0.066,0.064 0.11,0.106c0.032,-0.026 0.06,-0.05 0.081,-0.068c0.113,-0.111 0.268,-0.18 0.439,-0.18c0.128,0 0.247,0.038 0.346,0.104c0.064,-0.022 0.133,-0.034 0.204,-0.034c0.005,0 0.011,0 0.016,0c0.109,-0.006 0.339,-0.019 0.449,-0.024c0.026,-0.003 0.052,-0.005 0.078,-0.006c0.109,-0.01 0.339,-0.031 0.449,-0.041c0.035,-0.006 0.071,-0.009 0.108,-0.009c0.013,0 0.026,0 0.039,0.001c0.109,-0.002 0.339,-0.006 0.449,-0.008c0.02,-0.002 0.041,-0.003 0.062,-0.003c0.052,0 0.103,0.006 0.152,0.019c0.11,0.018 0.34,0.056 0.449,0.073c0.019,0.002 0.038,0.004 0.057,0.007c0.091,0.008 0.262,0.024 0.381,0.035c0.119,-0.035 0.295,-0.086 0.386,-0.112c0.07,-0.027 0.145,-0.041 0.225,-0.041c0.041,0 0.08,0.004 0.119,0.011c0.11,0.012 0.34,0.037 0.449,0.049c0.023,0.001 0.045,0.002 0.067,0.005c0.11,0.006 0.34,0.019 0.449,0.024c0.005,0 0.011,0 0.016,0c0.025,0 0.049,0.001 0.073,0.004c0.11,0.004 0.34,0.012 0.449,0.016c0.009,0 0.018,-0.001 0.027,-0.001c0.346,0 0.627,0.281 0.627,0.627c0,0.346 -0.281,0.627 -0.627,0.627c-0.025,0 -0.049,-0.001 -0.073,-0.004c-0.11,-0.004 -0.34,-0.012 -0.449,-0.016c-0.009,0 -0.018,0.001 -0.027,0.001c-0.029,0 -0.057,-0.002 -0.085,-0.006c-0.11,-0.006 -0.34,-0.019 -0.449,-0.024c-0.005,0 -0.011,0 -0.016,0c-0.041,0 -0.08,-0.004 -0.119,-0.011c-0.089,-0.01 -0.257,-0.028 -0.376,-0.041zM8.647,6.901c-0.118,0.019 -0.315,0.052 -0.415,0.068c-0.049,0.012 -0.1,0.019 -0.152,0.019c-0.095,0 -0.185,-0.021 -0.266,-0.059c-0.09,-0.033 -0.263,-0.098 -0.381,-0.141c-0.119,0.002 -0.291,0.005 -0.382,0.007c-0.02,0.002 -0.041,0.003 -0.062,0.003c-0.037,0 -0.073,-0.003 -0.108,-0.009c-0.11,-0.01 -0.34,-0.031 -0.449,-0.041c-0.03,0 -0.06,-0.003 -0.09,-0.007c-0.095,-0.007 -0.28,-0.02 -0.399,-0.029c-0.121,0.03 -0.315,0.079 -0.412,0.103c-0.063,0.022 -0.131,0.033 -0.202,0.033c-0.088,0 -0.171,-0.018 -0.247,-0.051c-0.107,-0.036 -0.334,-0.111 -0.441,-0.147c-0.022,-0.005 -0.044,-0.012 -0.066,-0.02c-0.067,0.043 -0.143,0.073 -0.224,0.088c-0.111,0.03 -0.348,0.093 -0.46,0.123c-0.066,0.024 -0.138,0.037 -0.212,0.037c-0.099,0 -0.192,-0.023 -0.275,-0.063c-0.04,-0.016 -0.097,-0.038 -0.159,-0.062c-0.097,0.076 -0.194,0.153 -0.25,0.197c-0.112,0.104 -0.262,0.167 -0.427,0.167c-0.185,0 -0.351,-0.08 -0.465,-0.207c-0.025,-0.024 -0.06,-0.056 -0.099,-0.093c-0.002,0 -0.004,0 -0.006,0c-0.346,0 -0.627,-0.281 -0.627,-0.627c0,-0.015 0.001,-0.03 0.002,-0.045c-0.001,-0.015 -0.002,-0.03 -0.002,-0.045c0,-0.017 0.001,-0.034 0.002,-0.05c0,-0.01 0,-0.02 0,-0.029c-0.001,-0.017 -0.002,-0.033 -0.002,-0.05c0,-0.007 0,-0.013 0,-0.02c0,-0.007 0,-0.013 0,-0.02c0,-0.003 0,-0.007 0,-0.01c0,-0.003 0,-0.007 0,-0.01c0,-0.002 0,-0.003 0,-0.005c0,-0.002 0,-0.003 0,-0.005c0,-0.005 0,-0.01 0,-0.015c0,-0.005 0,-0.01 0,-0.015c0,-0.007 0,-0.013 0,-0.02c0,-0.007 0,-0.013 0,-0.02c0,-0.008 0,-0.017 0,-0.025c0,-0.008 0,-0.017 0,-0.025c0,-0.007 0,-0.013 0,-0.02c0,-0.007 0,-0.013 0,-0.02c0,-0.002 0,-0.003 0,-0.005c0,-0.002 0,-0.003 0,-0.005c0,-0.002 0,-0.003 0,-0.005c0,-0.002 0,-0.003 0,-0.005c0,-0.007 0,-0.013 0,-0.02c0,-0.007 0,-0.013 0,-0.02c0,-0.007 0,-0.013 0,-0.02c0,-0.007 0,-0.013 0,-0.02c0,-0.002 0,-0.003 0,-0.005c0,-0.002 0,-0.003 0,-0.005c0,-0.002 0,-0.003 0,-0.005c0,-0.002 0,-0.003 0,-0.005c0,-0.003 0,-0.007 0,-0.01c0,-0.003 0,-0.007 0,-0.01c0,-0.003 0,-0.007 0,-0.01c0,-0.003 0,-0.007 0,-0.01c0,-0.003 0,-0.007 0,-0.01c0,-0.003 0,-0.007 0,-0.01c0,-0.002 0,-0.003 0,-0.005c0,-0.002 0,-0.003 0,-0.005c0,-0.017 0.001,-0.034 0.002,-0.05c0,-0.043 0,-0.097 0,-0.149c-0.001,-0.017 -0.002,-0.033 -0.002,-0.05c0,-0.017 0.001,-0.034 0.002,-0.05c0,-0.01 0,-0.02 0,-0.029c-0.001,-0.017 -0.002,-0.033 -0.002,-0.05c0,-0.346 0.281,-0.627 0.627,-0.627c0.239,0 0.447,0.134 0.553,0.331c0.088,0.029 0.176,0.058 0.232,0.076c0.031,0.007 0.06,0.017 0.089,0.028c0.09,0.028 0.263,0.081 0.382,0.118c0.119,-0.011 0.287,-0.026 0.376,-0.034c0.035,-0.006 0.071,-0.009 0.108,-0.009c0.029,0 0.057,0.002 0.085,0.006c0.093,0.005 0.274,0.015 0.393,0.021c0.119,-0.035 0.304,-0.088 0.398,-0.116c0.07,-0.027 0.145,-0.041 0.225,-0.041c0.072,0 0.141,0.012 0.205,0.034c0.076,0.019 0.21,0.053 0.322,0.082c0.006,-0.002 0.011,-0.004 0.017,-0.006c0.076,-0.033 0.159,-0.051 0.247,-0.051c0.301,0 0.553,0.213 0.613,0.496c0.074,0.005 0.144,0.011 0.192,0.014c0.002,0 0.003,0 0.005,0c0.037,0 0.073,0.003 0.108,0.009c0.11,0.01 0.34,0.031 0.449,0.041c0.011,0 0.022,0.001 0.032,0.001c0.109,-0.002 0.339,-0.006 0.449,-0.008c0.02,-0.002 0.041,-0.003 0.062,-0.003c0.095,0 0.185,0.021 0.266,0.059c0.079,0.029 0.223,0.083 0.336,0.125c0.114,-0.019 0.256,-0.042 0.336,-0.055c0.049,-0.012 0.1,-0.019 0.152,-0.019c0.041,0 0.08,0.004 0.119,0.011c0.11,0.012 0.34,0.037 0.449,0.049c0.031,0.001 0.06,0.004 0.09,0.009c0.11,0.01 0.34,0.031 0.449,0.041c0.027,0 0.053,0.002 0.079,0.006c0.108,0.006 0.332,0.018 0.439,0.024c0.005,0 0.01,0 0.015,0c0.346,0 0.627,0.281 0.627,0.627c0,0.346 -0.281,0.627 -0.627,0.627c-0.029,0 -0.058,-0.002 -0.086,-0.006c-0.108,-0.006 -0.332,-0.018 -0.439,-0.024c-0.005,0 -0.01,0 -0.015,0c-0.037,0 -0.073,-0.003 -0.108,-0.009c-0.11,-0.01 -0.34,-0.031 -0.449,-0.041c-0.038,0 -0.076,-0.004 -0.112,-0.011c-0.099,-0.011 -0.297,-0.032 -0.414,-0.045z"/>
</svg>
