<svg xmlns="http://www.w3.org/2000/svg" viewBox="0 0 24 24" fill="currentColor" stroke="none">
  <path d="M12.625,13.95c0.001,0.017 0.002,0.033 0.002,0.05c0,0.346 -0.281,0.627 -0.627,0.627c-0.346,0 -0.627,-0.281 -0.627,-0.627c0,-0.017 0.001,-0.034 0.002,-0.05c0,-0.57 0,-5.037 0,-7.441c-0.927,0.927 -2.155,2.155 -2.398,2.398c-0.115,0.135 -0.286,0.221 -0.477,0.221c-0.346,0 -0.627,-0.281 -0.627,-0.627c0,-0.191 0.086,-0.362 0.221,-0.477c0.371,-0.371 3.058,-3.058 3.429,-3.429c0.115,-0.135 0.286,-0.221 0.477,-0.221c0.191,0 0.362,0.086 0.477,0.221c0.371,0.371 3.058,3.058 3.429,3.429c0.135,0.115 0.221,0.286 0.221,0.477c0,0.346 -0.281,0.627 -0.627,0.627c-0.191,0 -0.362,-0.086 -0.477,-0.221c-0.242,-0.242 -1.47,-1.47 -2.398,-2.398c0,2.403 0,6.87 0,7.441zM5.55,18.125c-0.017,0.001 -0.033,0.002 -0.05,0.002c-0.346,0 -0.627,-0.281 -0.627,-0.627c0,-0.346 0.281,-0.627 0.627,-0.627c0.017,0 0.034,0.001 0.05,0.002c0.917,0 11.982,0 12.899,0c0.017,-0.001 0.033,-0.002 0.05,-0.002c0.346,0 0.627,0.281 0.627,0.627c0,0.346 -0.281,0.627 -0.627,0.627c-0.017,0 -0.034,-0.001 -0.05,-0.002c-0.917,0 -11.982,0 -12.899,0zM1.873,7c0,-0.017 0.001,-0.034 0.002,-0.05c0,-0.497 0,-3.902 0,-4.399c-0.001,-0.017 -0.002,-0.033 -0.002,-0.05c0,-0.346 0.281,-0.627 0.627,-0.627c0.017,0 0.034,0.001 0.05,0.002c0.497,0 3.902,0 4.399,0c0.017,-0.001 0.033,-0.002 0.05,-0.002c0.346,0 0.627,0.281 0.627,0.627c0,0.346 -0.281,0.627 -0.627,0.627c-0.017,0 -0.034,-0.001 -0.05,-0.002c-0.401,0 -2.691,0 -3.825,0c0,1.133 0,3.424 0,3.825c0.001,0.017 0.002,0.033 0.002,0.05c0,0.346 -0.281,0.627 -0.627,0.627c-0.346,0 -0.627,-0.281 -0.627,-0.627zM20.875,20.875c0,-1.133 0,-3.424 0,-3.825c-0.001,-0.017 -0.002,-0.033 -0.002,-0.05c0,-0.346 0.281,-0.627 0.627,-0.627c0.346,0 0.627,0.281 0.627,0.627c0,0.017 -0.001,0.034 -0.002,0.05c0,0.497 0,3.902 0,4.399c0.001,0.017 0.002,0.033 0.002,0.05c0,0.346 -0.281,0.627 -0.627,0.627c-0.017,0 -0.034,-0.001 -0.05,-0.002c-0.497,0 -3.902,0 -4.399,0c-0.017,0.001 -0.033,0.002 -0.05,0.002c-0.346,0 -0.627,-0.281 -0.627,-0.627c0,-0.346 0.281,-0.627 0.627,-0.627c0.017,0 0.034,0.001 0.05,0.002c0.401,0 2.691,0 3.825,0z"/>
</svg>
