<svg xmlns="http://www.w3.org/2000/svg" viewBox="0 0 24 24" fill="currentColor" stroke="none">
  <path d="M4.57 12.06L4.79 11.51L5.34 11.29L5.59 10.75L6.08 10.47L6.4 10.01L6.93 9.76L7.29 9.34L7.5 8.78L8.1 8.6L8 8.38L8.55 8.42L9.1 8.44L9.65 8.6L10.2 8.45L10.75 8.36L11.3 7.93L11.85 8.38L12.4 8.43L12.95 8.4L13.5 8.59L14.05 8.42L14.6 8.56L15.15 8.52L15.7 8.49L16.01 8.46L16.22 8.63L16.68 8.95L16.88 9.53L17.58 9.61L17.7 10.27L18.19 10.55L18.41 11.11L19.15 11.15L19.31 11.77L19.91 11.96L19.32 12.17L18.93 12.56L18.55 12.96L18.21 13.4L17.84 13.81L17.3 14.04L17.03 14.55L16.7 15L16.45 15.52L15.96 15.42L15.75 15.55L15.2 15.65L14.65 15.6L14.1 15.58L13.55 15.63L13 15.95L12.45 15.58L11.9 15.42L11.35 15.35L10.8 15.37L10.25 16.15L9.7 15.37L9.15 15.63L8.6 15.53L8.05 15.38L8.08 15.41L7.73 15.06L7.04 14.98L6.6 14.64L6.49 13.97L6.14 13.54L5.81 13.09L5.34 12.79L4.93 12.41L4.54 12.03ZM10.91 10.64L10.71 11.24L10.31 11.61L9.81 11.9L9.76 12L9.95 12.41L10.52 12.62L10.8 13.12L11.03 13.16L11.31 13.39L11.86 13.16L12.41 13.41L12.96 13.1L13.08 13.34L13.28 12.81L13.57 12.31L14.16 12.13L14.2 12.02L13.88 11.81L13.23 11.68L13.16 10.98L12.98 10.79L12.72 10.7L12.17 10.71L11.62 11.04L11.07 10.74ZM6.8 10.18L9.88 10.94L9.97 10.61L6.88 9.84ZM12.52 15.08L13.2 15.81L13.47 15.57L12.78 14.84ZM6.21 13.61L7.35 14.07L7.48 13.75L6.34 13.29ZM6.5 9.98L6.82 10.93L7.19 10.81L6.87 9.85ZM16.05 9.45L18.94 11.62L19.16 11.34L16.26 9.16ZM15.69 15.5L16.44 15.52L16.45 15.15L15.69 15.13ZM9.3 11.24L7.3 12.57L7.47 12.83L9.47 11.5ZM10.71 8.69L12.08 9.16L12.21 8.81L10.83 8.33ZM16.71 11.48L18.22 12.88L18.5 12.59L16.98 11.19ZM4.73 11.77L5.65 12.57L5.88 12.3L4.96 11.5ZM11.18 13.59L11.54 13.96L11.73 13.78L11.37 13.4ZM13.81 15.35L15.17 15.65L15.25 15.3L13.89 15ZM12.3 9.84L13.48 11.13L13.68 10.95L12.5 9.65ZM8.41 12.45L8.03 14.86L8.35 14.92L8.73 12.5ZM15.81 11.33L15.97 12.78L16.32 12.75L16.16 11.29ZM19.23 11.76L18.86 12.11L19.04 12.31L19.42 11.96Z"/>
  <path d="M5 6.05L5.44 5.73L5.67 5.17L6 4.9L6.09 5.12L6.64 5.36L6.84 5.93L7.3 6.25L8.09 6.24L8.4 6.7L8.49 7.39L8.85 7.81L9.36 8.08L9.54 8.67L10.04 8.95L10.5 9.27L10.69 9.85L11.17 10.16L11.68 10.42L11.92 10.96L12.44 11.22L12.72 11.72L13.05 12.16L13.63 12.37L13.98 12.79L14.32 13.23L14.63 13.69L14.97 14.13L15.4 14.49L15.81 14.85L16.25 15.19L16.59 15.63L17.08 15.91L17.37 16.4L17.87 16.68L18.21 17.12L18.53 17.57L18.9 17.98L18.96 17.92L18.65 18.25L18.3 18.67L17.97 19.03L18 18.9L17.45 18.68L17.08 18.27L16.7 17.87L16.28 17.52L15.9 17.11L15.55 16.69L15.16 16.31L14.89 15.79L14.38 15.53L14 15.12L13.37 14.98L13.33 14.24L12.96 13.83L12.47 13.55L12.02 13.22L11.6 12.86L11.39 12.3L11.01 11.89L10.5 11.62L10.06 11.28L9.83 10.74L9.46 10.33L9.01 10L8.59 9.65L8.27 9.19L7.77 8.91L7.4 8.51L7 8.13L6.6 7.75L6.34 7.23L5.85 6.94L5.38 6.64L5.13 6.11ZM10.2 9.3L10.38 11.51L10.66 11.49L10.48 9.28ZM11.03 11.29L12.7 12.88L12.94 12.64L11.26 11.05ZM7.69 6.76L6.78 7.53L6.96 7.75L7.88 6.98ZM15.66 15.51L17.3 18.04L17.61 17.84L15.97 15.31ZM18.33 17.57L17.75 18.79L18.05 18.93L18.62 17.71ZM14.94 14.47L14.83 15.7L15.23 15.74L15.34 14.51ZM9.43 8.41L8.19 8.85L8.33 9.24L9.56 8.8ZM13.8 12.97L13.01 13.87L13.27 14.1L14.06 13.21Z"/>
</svg>
